<svg version="1.1" xmlns="http://www.w3.org/2000/svg" viewBox="0 0 227.69160984284144 184.56521739130432" width="227.69160984284144" height="184.56521739130432">
  <!-- svg-source:excalidraw -->
  
  <defs>
    <style>
      @font-face {
        font-family: "Virgil";
        src: url("https://excalidraw.com/Virgil.woff2");
      }
      @font-face {
        font-family: "Cascadia";
        src: url("https://excalidraw.com/Cascadia.woff2");
      }
    </style>
  </defs>
  <g stroke-linecap="round" transform="translate(11.691609842841444 10) rotate(0 80 75)"><path d="M160 75 C160 77.61, 159.85 80.24, 159.56 82.84 C159.27 85.44, 158.83 88.04, 158.25 90.59 C157.67 93.15, 156.95 95.69, 156.08 98.18 C155.22 100.66, 154.22 103.12, 153.08 105.51 C151.95 107.89, 150.68 110.24, 149.28 112.5 C147.89 114.76, 146.36 116.97, 144.72 119.08 C143.08 121.2, 141.32 123.24, 139.45 125.18 C137.59 127.13, 135.6 128.99, 133.53 130.74 C131.46 132.48, 129.28 134.14, 127.02 135.68 C124.77 137.21, 122.41 138.65, 120 139.95 C117.59 141.26, 115.09 142.45, 112.54 143.52 C109.99 144.58, 107.37 145.52, 104.72 146.33 C102.07 147.14, 99.36 147.82, 96.63 148.36 C93.91 148.9, 91.13 149.32, 88.36 149.59 C85.59 149.86, 82.79 150, 80 150 C77.21 150, 74.41 149.86, 71.64 149.59 C68.87 149.32, 66.09 148.9, 63.37 148.36 C60.64 147.82, 57.93 147.14, 55.28 146.33 C52.63 145.52, 50.01 144.58, 47.46 143.52 C44.91 142.45, 42.41 141.26, 40 139.95 C37.59 138.65, 35.23 137.21, 32.98 135.68 C30.72 134.14, 28.54 132.48, 26.47 130.74 C24.4 128.99, 22.41 127.13, 20.55 125.18 C18.68 123.24, 16.92 121.2, 15.28 119.08 C13.64 116.97, 12.11 114.76, 10.72 112.5 C9.32 110.24, 8.05 107.89, 6.92 105.51 C5.78 103.12, 4.78 100.66, 3.92 98.18 C3.05 95.69, 2.33 93.15, 1.75 90.59 C1.17 88.04, 0.73 85.44, 0.44 82.84 C0.15 80.24, 0 77.61, 0 75 C0 72.39, 0.15 69.76, 0.44 67.16 C0.73 64.56, 1.17 61.96, 1.75 59.41 C2.33 56.85, 3.05 54.31, 3.92 51.82 C4.78 49.34, 5.78 46.88, 6.92 44.49 C8.05 42.11, 9.32 39.76, 10.72 37.5 C12.11 35.24, 13.64 33.03, 15.28 30.92 C16.92 28.8, 18.68 26.76, 20.55 24.82 C22.41 22.87, 24.4 21.01, 26.47 19.26 C28.54 17.52, 30.72 15.86, 32.98 14.32 C35.23 12.79, 37.59 11.35, 40 10.05 C42.41 8.74, 44.91 7.55, 47.46 6.48 C50.01 5.42, 52.63 4.48, 55.28 3.67 C57.93 2.86, 60.64 2.18, 63.37 1.64 C66.09 1.1, 68.87 0.68, 71.64 0.41 C74.41 0.14, 77.21 0, 80 0 C82.79 0, 85.59 0.14, 88.36 0.41 C91.13 0.68, 93.91 1.1, 96.63 1.64 C99.36 2.18, 102.07 2.86, 104.72 3.67 C107.37 4.48, 109.99 5.42, 112.54 6.48 C115.09 7.55, 117.59 8.74, 120 10.05 C122.41 11.35, 124.77 12.79, 127.02 14.32 C129.28 15.86, 131.46 17.52, 133.53 19.26 C135.6 21.01, 137.59 22.87, 139.45 24.82 C141.32 26.76, 143.08 28.8, 144.72 30.92 C146.36 33.03, 147.89 35.24, 149.28 37.5 C150.68 39.76, 151.95 42.11, 153.08 44.49 C154.22 46.88, 155.22 49.34, 156.08 51.82 C156.95 54.31, 157.67 56.85, 158.25 59.41 C158.83 61.96, 159.27 64.56, 159.56 67.16 C159.85 69.76, 159.93 73.69, 160 75 C160.07 76.31, 160.07 73.69, 160 75" stroke="none" stroke-width="0" fill="#fa5252"></path><path d="M160 75 C160 77.61, 159.85 80.24, 159.56 82.84 C159.27 85.44, 158.83 88.04, 158.25 90.59 C157.67 93.15, 156.95 95.69, 156.08 98.18 C155.22 100.66, 154.22 103.12, 153.08 105.51 C151.95 107.89, 150.68 110.24, 149.28 112.5 C147.89 114.76, 146.36 116.97, 144.72 119.08 C143.08 121.2, 141.32 123.24, 139.45 125.18 C137.59 127.13, 135.6 128.99, 133.53 130.74 C131.46 132.48, 129.28 134.14, 127.02 135.68 C124.77 137.21, 122.41 138.65, 120 139.95 C117.59 141.26, 115.09 142.45, 112.54 143.52 C109.99 144.58, 107.37 145.52, 104.72 146.33 C102.07 147.14, 99.36 147.82, 96.63 148.36 C93.91 148.9, 91.13 149.32, 88.36 149.59 C85.59 149.86, 82.79 150, 80 150 C77.21 150, 74.41 149.86, 71.64 149.59 C68.87 149.32, 66.09 148.9, 63.37 148.36 C60.64 147.82, 57.93 147.14, 55.28 146.33 C52.63 145.52, 50.01 144.58, 47.46 143.52 C44.91 142.45, 42.41 141.26, 40 139.95 C37.59 138.65, 35.23 137.21, 32.98 135.68 C30.72 134.14, 28.54 132.48, 26.47 130.74 C24.4 128.99, 22.41 127.13, 20.55 125.18 C18.68 123.24, 16.92 121.2, 15.28 119.08 C13.64 116.97, 12.11 114.76, 10.72 112.5 C9.32 110.24, 8.05 107.89, 6.92 105.51 C5.78 103.12, 4.78 100.66, 3.92 98.18 C3.05 95.69, 2.33 93.15, 1.75 90.59 C1.17 88.04, 0.73 85.44, 0.44 82.84 C0.15 80.24, 0 77.61, 0 75 C0 72.39, 0.15 69.76, 0.44 67.16 C0.73 64.56, 1.17 61.96, 1.75 59.41 C2.33 56.85, 3.05 54.31, 3.92 51.82 C4.78 49.34, 5.78 46.88, 6.92 44.49 C8.05 42.11, 9.32 39.76, 10.72 37.5 C12.11 35.24, 13.64 33.03, 15.28 30.92 C16.92 28.8, 18.68 26.76, 20.55 24.82 C22.41 22.87, 24.4 21.01, 26.47 19.26 C28.54 17.52, 30.72 15.86, 32.98 14.32 C35.23 12.79, 37.59 11.35, 40 10.05 C42.41 8.74, 44.91 7.55, 47.46 6.48 C50.01 5.42, 52.63 4.48, 55.28 3.67 C57.93 2.86, 60.64 2.18, 63.37 1.64 C66.09 1.1, 68.87 0.68, 71.64 0.41 C74.41 0.14, 77.21 0, 80 0 C82.79 0, 85.59 0.14, 88.36 0.41 C91.13 0.68, 93.91 1.1, 96.63 1.64 C99.36 2.18, 102.07 2.86, 104.72 3.67 C107.37 4.48, 109.99 5.42, 112.54 6.48 C115.09 7.55, 117.59 8.74, 120 10.05 C122.41 11.35, 124.77 12.79, 127.02 14.32 C129.28 15.86, 131.46 17.52, 133.53 19.26 C135.6 21.01, 137.59 22.87, 139.45 24.82 C141.32 26.76, 143.08 28.8, 144.72 30.92 C146.36 33.03, 147.89 35.24, 149.28 37.5 C150.68 39.76, 151.95 42.11, 153.08 44.49 C154.22 46.88, 155.22 49.34, 156.08 51.82 C156.95 54.31, 157.67 56.85, 158.25 59.41 C158.83 61.96, 159.27 64.56, 159.56 67.16 C159.85 69.76, 159.93 73.69, 160 75 C160.07 76.31, 160.07 73.69, 160 75" stroke="transparent" stroke-width="4" fill="none"></path></g><g stroke-linecap="round" transform="translate(57.691609842841444 24.565217391304316) rotate(0 80 75)"><path d="M160 75 C160 77.61, 159.85 80.24, 159.56 82.84 C159.27 85.44, 158.83 88.04, 158.25 90.59 C157.67 93.15, 156.95 95.69, 156.08 98.18 C155.22 100.66, 154.22 103.12, 153.08 105.51 C151.95 107.89, 150.68 110.24, 149.28 112.5 C147.89 114.76, 146.36 116.97, 144.72 119.08 C143.08 121.2, 141.32 123.24, 139.45 125.18 C137.59 127.13, 135.6 128.99, 133.53 130.74 C131.46 132.48, 129.28 134.14, 127.02 135.68 C124.77 137.21, 122.41 138.65, 120 139.95 C117.59 141.26, 115.09 142.45, 112.54 143.52 C109.99 144.58, 107.37 145.52, 104.72 146.33 C102.07 147.14, 99.36 147.82, 96.63 148.36 C93.91 148.9, 91.13 149.32, 88.36 149.59 C85.59 149.86, 82.79 150, 80 150 C77.21 150, 74.41 149.86, 71.64 149.59 C68.87 149.32, 66.09 148.9, 63.37 148.36 C60.64 147.82, 57.93 147.14, 55.28 146.33 C52.63 145.52, 50.01 144.58, 47.46 143.52 C44.91 142.45, 42.41 141.26, 40 139.95 C37.59 138.65, 35.23 137.21, 32.98 135.68 C30.72 134.14, 28.54 132.48, 26.47 130.74 C24.4 128.99, 22.41 127.13, 20.55 125.18 C18.68 123.24, 16.92 121.2, 15.28 119.08 C13.64 116.97, 12.11 114.76, 10.72 112.5 C9.32 110.24, 8.05 107.89, 6.92 105.51 C5.78 103.12, 4.78 100.66, 3.92 98.18 C3.05 95.69, 2.33 93.15, 1.75 90.59 C1.17 88.04, 0.73 85.44, 0.44 82.84 C0.15 80.24, 0 77.61, 0 75 C0 72.39, 0.15 69.76, 0.44 67.16 C0.73 64.56, 1.17 61.96, 1.75 59.41 C2.33 56.85, 3.05 54.31, 3.92 51.82 C4.78 49.34, 5.78 46.88, 6.92 44.49 C8.05 42.11, 9.32 39.76, 10.72 37.5 C12.11 35.24, 13.64 33.03, 15.28 30.92 C16.92 28.8, 18.68 26.76, 20.55 24.82 C22.41 22.87, 24.4 21.01, 26.47 19.26 C28.54 17.52, 30.72 15.86, 32.98 14.32 C35.23 12.79, 37.59 11.35, 40 10.05 C42.41 8.74, 44.91 7.55, 47.46 6.48 C50.01 5.42, 52.63 4.48, 55.28 3.67 C57.93 2.86, 60.64 2.18, 63.37 1.64 C66.09 1.1, 68.87 0.68, 71.64 0.41 C74.41 0.14, 77.21 0, 80 0 C82.79 0, 85.59 0.14, 88.36 0.41 C91.13 0.68, 93.91 1.1, 96.63 1.64 C99.36 2.18, 102.07 2.86, 104.72 3.67 C107.37 4.48, 109.99 5.42, 112.54 6.48 C115.09 7.55, 117.59 8.74, 120 10.05 C122.41 11.35, 124.77 12.79, 127.02 14.32 C129.28 15.86, 131.46 17.52, 133.53 19.26 C135.6 21.01, 137.59 22.87, 139.45 24.82 C141.32 26.76, 143.08 28.8, 144.72 30.92 C146.36 33.03, 147.89 35.24, 149.28 37.5 C150.68 39.76, 151.95 42.11, 153.08 44.49 C154.22 46.88, 155.22 49.34, 156.08 51.82 C156.95 54.31, 157.67 56.85, 158.25 59.41 C158.83 61.96, 159.27 64.56, 159.56 67.16 C159.85 69.76, 159.93 73.69, 160 75 C160.07 76.31, 160.07 73.69, 160 75" stroke="none" stroke-width="0" fill="#40c057"></path><path d="M160 75 C160 77.61, 159.85 80.24, 159.56 82.84 C159.27 85.44, 158.83 88.04, 158.25 90.59 C157.67 93.15, 156.95 95.69, 156.08 98.18 C155.22 100.66, 154.22 103.12, 153.08 105.51 C151.95 107.89, 150.68 110.24, 149.28 112.5 C147.89 114.76, 146.36 116.97, 144.72 119.08 C143.08 121.2, 141.32 123.24, 139.45 125.18 C137.59 127.13, 135.6 128.99, 133.53 130.74 C131.46 132.48, 129.28 134.14, 127.02 135.68 C124.77 137.21, 122.41 138.65, 120 139.95 C117.59 141.26, 115.09 142.45, 112.54 143.52 C109.99 144.58, 107.37 145.52, 104.72 146.33 C102.07 147.14, 99.36 147.82, 96.63 148.36 C93.91 148.9, 91.13 149.32, 88.36 149.59 C85.59 149.86, 82.79 150, 80 150 C77.21 150, 74.41 149.86, 71.64 149.59 C68.87 149.32, 66.09 148.9, 63.37 148.36 C60.64 147.82, 57.93 147.14, 55.28 146.33 C52.63 145.52, 50.01 144.58, 47.46 143.52 C44.91 142.45, 42.41 141.26, 40 139.95 C37.59 138.65, 35.23 137.21, 32.98 135.68 C30.72 134.14, 28.54 132.48, 26.47 130.74 C24.4 128.99, 22.41 127.13, 20.55 125.18 C18.68 123.24, 16.92 121.2, 15.28 119.08 C13.64 116.97, 12.11 114.76, 10.72 112.5 C9.32 110.24, 8.05 107.89, 6.92 105.51 C5.78 103.12, 4.78 100.66, 3.92 98.18 C3.05 95.69, 2.33 93.15, 1.75 90.59 C1.17 88.04, 0.73 85.44, 0.44 82.84 C0.15 80.24, 0 77.61, 0 75 C0 72.39, 0.15 69.76, 0.44 67.16 C0.73 64.56, 1.17 61.96, 1.75 59.41 C2.33 56.85, 3.05 54.31, 3.92 51.82 C4.78 49.34, 5.78 46.88, 6.92 44.49 C8.05 42.11, 9.32 39.76, 10.72 37.5 C12.11 35.24, 13.64 33.03, 15.28 30.92 C16.92 28.8, 18.68 26.76, 20.55 24.82 C22.41 22.87, 24.4 21.01, 26.47 19.26 C28.54 17.52, 30.72 15.86, 32.98 14.32 C35.23 12.79, 37.59 11.35, 40 10.05 C42.41 8.74, 44.91 7.55, 47.46 6.48 C50.01 5.42, 52.63 4.48, 55.28 3.67 C57.93 2.86, 60.64 2.18, 63.37 1.64 C66.09 1.1, 68.87 0.68, 71.64 0.41 C74.41 0.14, 77.21 0, 80 0 C82.79 0, 85.59 0.14, 88.36 0.41 C91.13 0.68, 93.91 1.1, 96.63 1.64 C99.36 2.18, 102.07 2.86, 104.72 3.67 C107.37 4.48, 109.99 5.42, 112.54 6.48 C115.09 7.55, 117.59 8.74, 120 10.05 C122.41 11.35, 124.77 12.79, 127.02 14.32 C129.28 15.86, 131.46 17.52, 133.53 19.26 C135.6 21.01, 137.59 22.87, 139.45 24.82 C141.32 26.76, 143.08 28.8, 144.72 30.92 C146.36 33.03, 147.89 35.24, 149.28 37.5 C150.68 39.76, 151.95 42.11, 153.08 44.49 C154.22 46.88, 155.22 49.34, 156.08 51.82 C156.95 54.31, 157.67 56.85, 158.25 59.41 C158.83 61.96, 159.27 64.56, 159.56 67.16 C159.85 69.76, 159.93 73.69, 160 75 C160.07 76.31, 160.07 73.69, 160 75" stroke="transparent" stroke-width="1" fill="none"></path></g><g transform="translate(62.691609842841444 86.06521739130432) rotate(0 75 13.5)"><text x="75" y="19" font-family="Virgil, Segoe UI Emoji" font-size="20px" fill="transparent" text-anchor="middle" style="white-space: pre;" direction="ltr">suisui</text></g><g stroke-linecap="round" transform="translate(171.69160984284144 120) rotate(299.7567385061697 18.0555555555556 27)"><path d="M16.9 -0.12 C20.44 -1.13, 25.63 0.92, 28.67 4.39 C31.7 7.86, 34.26 15.13, 35.11 20.68 C35.95 26.24, 35.36 32.54, 33.72 37.7 C32.08 42.87, 28.83 49.16, 25.25 51.68 C21.68 54.2, 15.97 54.48, 12.27 52.84 C8.58 51.21, 5.15 46.54, 3.08 41.89 C1.02 37.25, -0.33 30.8, -0.11 24.99 C0.12 19.19, 1.59 11.15, 4.44 7.08 C7.28 3, 14.56 1.53, 16.96 0.53 C19.37 -0.47, 18.78 0.7, 18.87 1.09 M15.07 -0.07 C18.54 -1.61, 23.38 -0.43, 26.7 2.53 C30.02 5.5, 33.52 12.33, 35 17.72 C36.48 23.1, 36.96 29.36, 35.58 34.84 C34.21 40.31, 30.18 47.5, 26.75 50.57 C23.31 53.64, 18.57 54.39, 14.98 53.23 C11.38 52.08, 7.59 47.83, 5.18 43.63 C2.76 39.44, 0.7 33.66, 0.49 28.04 C0.29 22.42, 1.69 14.69, 3.95 9.9 C6.21 5.11, 12.28 0.91, 14.04 -0.7 C15.8 -2.31, 14.53 -0.33, 14.52 0.23" stroke="none" stroke-width="0" fill="#40c057"></path><path d="M12.79 0.59 C16.44 -1.22, 21.93 -0.19, 25.6 2.35 C29.26 4.88, 33.03 10.67, 34.77 15.82 C36.51 20.98, 37.08 27.79, 36.02 33.3 C34.96 38.81, 31.5 45.57, 28.4 48.9 C25.3 52.23, 21.26 53.66, 17.42 53.3 C13.58 52.93, 8.35 50.48, 5.38 46.7 C2.41 42.91, -0.14 36.41, -0.41 30.58 C-0.69 24.75, 1.17 16.7, 3.74 11.7 C6.31 6.7, 12.95 2.53, 15.01 0.6 C17.07 -1.34, 16.24 -0.3, 16.11 0.1 M20.31 0.27 C24.3 0.71, 30.23 5.36, 32.64 10.02 C35.04 14.68, 34.84 22.7, 34.74 28.24 C34.64 33.77, 34.44 39.07, 32.03 43.24 C29.62 47.4, 24.25 52.03, 20.29 53.22 C16.32 54.42, 11.42 52.98, 8.23 50.39 C5.05 47.79, 2.41 43.17, 1.16 37.65 C-0.08 32.13, -0.77 23.13, 0.76 17.26 C2.3 11.39, 6.76 5.38, 10.37 2.44 C13.99 -0.5, 20.42 -0.37, 22.45 -0.38 C24.49 -0.39, 22.8 1.88, 22.57 2.38" stroke="transparent" stroke-width="4" fill="none"></path></g><g transform="translate(86.53460501192353 86.95459923099696) rotate(0 42.88164251207718 39.38110026619336)"><text x="42.881642512077185" y="54.76220053238673" font-family="Virgil, Segoe UI Emoji" font-size="63.00976042590936px" fill="#fff" text-anchor="middle" style="white-space: pre;" direction="ltr">sui</text></g><g stroke-linecap="round"><g transform="translate(23.60696930383665 10.890242667283076) rotate(342.2689211444171 7.427146915293633 13.003033965379586)"><path d="M2.02 -1.48 C3.82 3.03, 8.17 22.69, 9.61 27.49 M-0.33 3.89 C2.52 7.59, 13.7 20.44, 15.19 23.59" stroke="#2b8a3e" stroke-width="1" fill="none"></path></g></g><g stroke-linecap="round"><g transform="translate(174.2285721281678 8.14176797996953) rotate(57.66228842840272 3.6972078841081952 15.251391337544135)"><path d="M-2.55 2.55 C-0.87 7.07, 8.56 24.3, 9.95 29.04 M1.25 1.46 C2.81 4.91, 7.33 20.17, 9.08 24.4" stroke="#d9480f" stroke-width="1" fill="none"></path></g></g><g stroke-linecap="round" transform="translate(38.86298555126518 39.90316854883082) rotate(32.152295141282096 5.114325305538102 13.820692734812951)"><path d="M10.23 13.82 C10.23 14.62, 10.2 15.43, 10.15 16.22 C10.1 17.01, 10.02 17.8, 9.92 18.55 C9.82 19.3, 9.69 20.04, 9.54 20.73 C9.4 21.42, 9.22 22.09, 9.03 22.7 C8.84 23.32, 8.63 23.89, 8.4 24.41 C8.17 24.92, 7.93 25.39, 7.67 25.79 C7.42 26.19, 7.14 26.53, 6.86 26.81 C6.59 27.08, 6.29 27.29, 6 27.43 C5.71 27.57, 5.41 27.64, 5.11 27.64 C4.82 27.64, 4.52 27.57, 4.23 27.43 C3.93 27.29, 3.64 27.08, 3.37 26.81 C3.09 26.53, 2.81 26.19, 2.56 25.79 C2.3 25.39, 2.05 24.92, 1.83 24.41 C1.6 23.89, 1.39 23.32, 1.2 22.7 C1.01 22.09, 0.83 21.42, 0.69 20.73 C0.54 20.04, 0.41 19.3, 0.31 18.55 C0.21 17.8, 0.13 17.01, 0.08 16.22 C0.03 15.43, 0 14.62, 0 13.82 C0 13.02, 0.03 12.21, 0.08 11.42 C0.13 10.63, 0.21 9.85, 0.31 9.09 C0.41 8.34, 0.54 7.6, 0.69 6.91 C0.83 6.22, 1.01 5.55, 1.2 4.94 C1.39 4.32, 1.6 3.75, 1.83 3.23 C2.05 2.72, 2.3 2.25, 2.56 1.85 C2.81 1.45, 3.09 1.11, 3.37 0.83 C3.64 0.56, 3.93 0.35, 4.23 0.21 C4.52 0.07, 4.82 0, 5.11 0 C5.41 0, 5.71 0.07, 6 0.21 C6.29 0.35, 6.59 0.56, 6.86 0.83 C7.14 1.11, 7.42 1.45, 7.67 1.85 C7.93 2.25, 8.17 2.72, 8.4 3.23 C8.63 3.75, 8.84 4.32, 9.03 4.94 C9.22 5.55, 9.4 6.22, 9.54 6.91 C9.69 7.6, 9.82 8.34, 9.92 9.09 C10.02 9.85, 10.1 10.63, 10.15 11.42 C10.2 12.21, 10.22 13.42, 10.23 13.82 C10.24 14.22, 10.24 13.42, 10.23 13.82" stroke="none" stroke-width="0" fill="#fff"></path><path d="M10.23 13.82 C10.23 14.62, 10.2 15.43, 10.15 16.22 C10.1 17.01, 10.02 17.8, 9.92 18.55 C9.82 19.3, 9.69 20.04, 9.54 20.73 C9.4 21.42, 9.22 22.09, 9.03 22.7 C8.84 23.32, 8.63 23.89, 8.4 24.41 C8.17 24.92, 7.93 25.39, 7.67 25.79 C7.42 26.19, 7.14 26.53, 6.86 26.81 C6.59 27.08, 6.29 27.29, 6 27.43 C5.71 27.57, 5.41 27.64, 5.11 27.64 C4.82 27.64, 4.52 27.57, 4.23 27.43 C3.93 27.29, 3.64 27.08, 3.37 26.81 C3.09 26.53, 2.81 26.19, 2.56 25.79 C2.3 25.39, 2.05 24.92, 1.83 24.41 C1.6 23.89, 1.39 23.32, 1.2 22.7 C1.01 22.09, 0.83 21.42, 0.69 20.73 C0.54 20.04, 0.41 19.3, 0.31 18.55 C0.21 17.8, 0.13 17.01, 0.08 16.22 C0.03 15.43, 0 14.62, 0 13.82 C0 13.02, 0.03 12.21, 0.08 11.42 C0.13 10.63, 0.21 9.85, 0.31 9.09 C0.41 8.34, 0.54 7.6, 0.69 6.91 C0.83 6.22, 1.01 5.55, 1.2 4.94 C1.39 4.32, 1.6 3.75, 1.83 3.23 C2.05 2.72, 2.3 2.25, 2.56 1.85 C2.81 1.45, 3.09 1.11, 3.37 0.83 C3.64 0.56, 3.93 0.35, 4.23 0.21 C4.52 0.07, 4.82 0, 5.11 0 C5.41 0, 5.71 0.07, 6 0.21 C6.29 0.35, 6.59 0.56, 6.86 0.83 C7.14 1.11, 7.42 1.45, 7.67 1.85 C7.93 2.25, 8.17 2.72, 8.4 3.23 C8.63 3.75, 8.84 4.32, 9.03 4.94 C9.22 5.55, 9.4 6.22, 9.54 6.91 C9.69 7.6, 9.82 8.34, 9.92 9.09 C10.02 9.85, 10.1 10.63, 10.15 11.42 C10.2 12.21, 10.22 13.42, 10.23 13.82 C10.24 14.22, 10.24 13.42, 10.23 13.82" stroke="#fff" stroke-width="1" fill="none"></path></g><g stroke-linecap="round" transform="translate(86.36894257380618 50.68378138907565) rotate(32.152295141282096 4.073120108371768 14.83034625933783)"><path d="M8.15 14.83 C8.15 15.69, 8.13 16.56, 8.08 17.41 C8.04 18.25, 7.98 19.1, 7.9 19.9 C7.82 20.71, 7.72 21.5, 7.6 22.25 C7.48 22.99, 7.34 23.71, 7.19 24.36 C7.04 25.02, 6.87 25.64, 6.69 26.19 C6.51 26.74, 6.31 27.24, 6.11 27.67 C5.91 28.1, 5.69 28.47, 5.47 28.77 C5.24 29.06, 5.01 29.29, 4.78 29.44 C4.55 29.58, 4.31 29.66, 4.07 29.66 C3.84 29.66, 3.6 29.58, 3.37 29.44 C3.13 29.29, 2.9 29.06, 2.68 28.77 C2.46 28.47, 2.24 28.1, 2.04 27.67 C1.83 27.24, 1.64 26.74, 1.45 26.19 C1.27 25.64, 1.1 25.02, 0.95 24.36 C0.8 23.71, 0.66 22.99, 0.55 22.25 C0.43 21.5, 0.33 20.71, 0.25 19.9 C0.17 19.1, 0.1 18.25, 0.06 17.41 C0.02 16.56, 0 15.69, 0 14.83 C0 13.97, 0.02 13.1, 0.06 12.26 C0.1 11.41, 0.17 10.56, 0.25 9.76 C0.33 8.95, 0.43 8.16, 0.55 7.42 C0.66 6.67, 0.8 5.96, 0.95 5.3 C1.1 4.64, 1.27 4.02, 1.45 3.47 C1.64 2.92, 1.83 2.42, 2.04 1.99 C2.24 1.56, 2.46 1.19, 2.68 0.89 C2.9 0.6, 3.13 0.37, 3.37 0.23 C3.6 0.08, 3.84 0, 4.07 0 C4.31 0, 4.55 0.08, 4.78 0.23 C5.01 0.37, 5.24 0.6, 5.47 0.89 C5.69 1.19, 5.91 1.56, 6.11 1.99 C6.31 2.42, 6.51 2.92, 6.69 3.47 C6.87 4.02, 7.04 4.64, 7.19 5.3 C7.34 5.96, 7.48 6.67, 7.6 7.42 C7.72 8.16, 7.82 8.95, 7.9 9.76 C7.98 10.56, 8.04 11.41, 8.08 12.26 C8.13 13.1, 8.14 14.4, 8.15 14.83 C8.16 15.26, 8.16 14.4, 8.15 14.83" stroke="none" stroke-width="0" fill="#fff"></path><path d="M8.15 14.83 C8.15 15.69, 8.13 16.56, 8.08 17.41 C8.04 18.25, 7.98 19.1, 7.9 19.9 C7.82 20.71, 7.72 21.5, 7.6 22.25 C7.48 22.99, 7.34 23.71, 7.19 24.36 C7.04 25.02, 6.87 25.64, 6.69 26.19 C6.51 26.74, 6.31 27.24, 6.11 27.67 C5.91 28.1, 5.69 28.47, 5.47 28.77 C5.24 29.06, 5.01 29.29, 4.78 29.44 C4.55 29.58, 4.31 29.66, 4.07 29.66 C3.84 29.66, 3.6 29.58, 3.37 29.44 C3.13 29.29, 2.9 29.06, 2.68 28.77 C2.46 28.47, 2.24 28.1, 2.04 27.67 C1.83 27.24, 1.64 26.74, 1.45 26.19 C1.27 25.64, 1.1 25.02, 0.95 24.36 C0.8 23.71, 0.66 22.99, 0.55 22.25 C0.43 21.5, 0.33 20.71, 0.25 19.9 C0.17 19.1, 0.1 18.25, 0.06 17.41 C0.02 16.56, 0 15.69, 0 14.83 C0 13.97, 0.02 13.1, 0.06 12.26 C0.1 11.41, 0.17 10.56, 0.25 9.76 C0.33 8.95, 0.43 8.16, 0.55 7.42 C0.66 6.67, 0.8 5.96, 0.95 5.3 C1.1 4.64, 1.27 4.02, 1.45 3.47 C1.64 2.92, 1.83 2.42, 2.04 1.99 C2.24 1.56, 2.46 1.19, 2.68 0.89 C2.9 0.6, 3.13 0.37, 3.37 0.23 C3.6 0.08, 3.84 0, 4.07 0 C4.31 0, 4.55 0.08, 4.78 0.23 C5.01 0.37, 5.24 0.6, 5.47 0.89 C5.69 1.19, 5.91 1.56, 6.11 1.99 C6.31 2.42, 6.51 2.92, 6.69 3.47 C6.87 4.02, 7.04 4.64, 7.19 5.3 C7.34 5.96, 7.48 6.67, 7.6 7.42 C7.72 8.16, 7.82 8.95, 7.9 9.76 C7.98 10.56, 8.04 11.41, 8.08 12.26 C8.13 13.1, 8.14 14.4, 8.15 14.83 C8.16 15.26, 8.16 14.4, 8.15 14.83" stroke="#fff" stroke-width="1" fill="none"></path></g><g stroke-linecap="round" transform="translate(4.763324037649568 109.4499053897232) rotate(58.392497753751215 16.899189282299858 8.909149026967697)"><path d="M33.8 8.91 C33.8 9.42, 33.71 9.95, 33.54 10.46 C33.37 10.96, 33.11 11.47, 32.78 11.96 C32.44 12.44, 32.02 12.92, 31.53 13.36 C31.05 13.81, 30.47 14.24, 29.84 14.64 C29.22 15.03, 28.51 15.4, 27.76 15.73 C27.01 16.07, 26.2 16.37, 25.35 16.62 C24.5 16.88, 23.6 17.1, 22.68 17.28 C21.76 17.46, 20.8 17.59, 19.83 17.68 C18.87 17.77, 17.88 17.82, 16.9 17.82 C15.92 17.82, 14.93 17.77, 13.96 17.68 C13 17.59, 12.04 17.46, 11.12 17.28 C10.2 17.1, 9.3 16.88, 8.45 16.62 C7.6 16.37, 6.79 16.07, 6.04 15.73 C5.29 15.4, 4.58 15.03, 3.95 14.64 C3.32 14.24, 2.75 13.81, 2.26 13.36 C1.77 12.92, 1.35 12.44, 1.02 11.96 C0.68 11.47, 0.43 10.96, 0.26 10.46 C0.09 9.95, 0 9.42, 0 8.91 C0 8.39, 0.09 7.87, 0.26 7.36 C0.43 6.85, 0.68 6.35, 1.02 5.86 C1.35 5.38, 1.77 4.9, 2.26 4.45 C2.75 4.01, 3.32 3.58, 3.95 3.18 C4.58 2.79, 5.29 2.42, 6.04 2.08 C6.79 1.75, 7.6 1.45, 8.45 1.19 C9.3 0.94, 10.2 0.71, 11.12 0.54 C12.04 0.36, 13 0.22, 13.96 0.14 C14.93 0.05, 15.92 0, 16.9 0 C17.88 0, 18.87 0.05, 19.83 0.14 C20.8 0.22, 21.76 0.36, 22.68 0.54 C23.6 0.71, 24.5 0.94, 25.35 1.19 C26.2 1.45, 27.01 1.75, 27.76 2.08 C28.51 2.42, 29.22 2.79, 29.84 3.18 C30.47 3.58, 31.05 4.01, 31.53 4.45 C32.02 4.9, 32.44 5.38, 32.78 5.86 C33.11 6.35, 33.37 6.85, 33.54 7.36 C33.71 7.87, 33.76 8.65, 33.8 8.91 C33.84 9.17, 33.84 8.65, 33.8 8.91" stroke="none" stroke-width="0" fill="#fff"></path><path d="M33.8 8.91 C33.8 9.42, 33.71 9.95, 33.54 10.46 C33.37 10.96, 33.11 11.47, 32.78 11.96 C32.44 12.44, 32.02 12.92, 31.53 13.36 C31.05 13.81, 30.47 14.24, 29.84 14.64 C29.22 15.03, 28.51 15.4, 27.76 15.73 C27.01 16.07, 26.2 16.37, 25.35 16.62 C24.5 16.88, 23.6 17.1, 22.68 17.28 C21.76 17.46, 20.8 17.59, 19.83 17.68 C18.87 17.77, 17.88 17.82, 16.9 17.82 C15.92 17.82, 14.93 17.77, 13.96 17.68 C13 17.59, 12.04 17.46, 11.12 17.28 C10.2 17.1, 9.3 16.88, 8.45 16.62 C7.6 16.37, 6.79 16.07, 6.04 15.73 C5.29 15.4, 4.58 15.03, 3.95 14.64 C3.32 14.24, 2.75 13.81, 2.26 13.36 C1.77 12.92, 1.35 12.44, 1.02 11.96 C0.68 11.47, 0.43 10.96, 0.26 10.46 C0.09 9.95, 0 9.42, 0 8.91 C0 8.39, 0.09 7.87, 0.26 7.36 C0.43 6.85, 0.68 6.35, 1.02 5.86 C1.35 5.38, 1.77 4.9, 2.26 4.45 C2.75 4.01, 3.32 3.58, 3.95 3.18 C4.58 2.79, 5.29 2.42, 6.04 2.08 C6.79 1.75, 7.6 1.45, 8.45 1.19 C9.3 0.94, 10.2 0.71, 11.12 0.54 C12.04 0.36, 13 0.22, 13.96 0.14 C14.93 0.05, 15.92 0, 16.9 0 C17.88 0, 18.87 0.05, 19.83 0.14 C20.8 0.22, 21.76 0.36, 22.68 0.54 C23.6 0.71, 24.5 0.94, 25.35 1.19 C26.2 1.45, 27.01 1.75, 27.76 2.08 C28.51 2.42, 29.22 2.79, 29.84 3.18 C30.47 3.58, 31.05 4.01, 31.53 4.45 C32.02 4.9, 32.44 5.38, 32.78 5.86 C33.11 6.35, 33.37 6.85, 33.54 7.36 C33.71 7.87, 33.76 8.65, 33.8 8.91 C33.84 9.17, 33.84 8.65, 33.8 8.91" stroke="#fff" stroke-width="1" fill="none"></path></g><g stroke-linecap="round" transform="translate(52.19126466567582 124.63972082875239) rotate(49.253836436119784 18.71823286236173 9.024838493319521)"><path d="M37.44 9.02 C37.44 9.55, 37.34 10.08, 37.15 10.59 C36.96 11.11, 36.68 11.62, 36.31 12.11 C35.94 12.6, 35.47 13.08, 34.93 13.54 C34.39 13.99, 33.75 14.43, 33.06 14.83 C32.36 15.23, 31.58 15.6, 30.75 15.94 C29.92 16.27, 29.02 16.58, 28.08 16.84 C27.14 17.1, 26.14 17.33, 25.12 17.51 C24.1 17.68, 23.04 17.82, 21.97 17.91 C20.9 18, 19.8 18.05, 18.72 18.05 C17.63 18.05, 16.53 18, 15.47 17.91 C14.4 17.82, 13.33 17.68, 12.32 17.51 C11.3 17.33, 10.3 17.1, 9.36 16.84 C8.42 16.58, 7.52 16.27, 6.69 15.94 C5.86 15.6, 5.08 15.23, 4.38 14.83 C3.68 14.43, 3.05 13.99, 2.51 13.54 C1.97 13.08, 1.5 12.6, 1.13 12.11 C0.76 11.62, 0.47 11.11, 0.28 10.59 C0.1 10.08, 0 9.55, 0 9.02 C0 8.5, 0.1 7.97, 0.28 7.46 C0.47 6.94, 0.76 6.43, 1.13 5.94 C1.5 5.45, 1.97 4.96, 2.51 4.51 C3.05 4.06, 3.68 3.62, 4.38 3.22 C5.08 2.82, 5.86 2.45, 6.69 2.11 C7.52 1.78, 8.42 1.47, 9.36 1.21 C10.3 0.95, 11.3 0.72, 12.32 0.54 C13.33 0.37, 14.4 0.23, 15.47 0.14 C16.53 0.05, 17.63 0, 18.72 0 C19.8 0, 20.9 0.05, 21.97 0.14 C23.04 0.23, 24.1 0.37, 25.12 0.54 C26.14 0.72, 27.14 0.95, 28.08 1.21 C29.02 1.47, 29.92 1.78, 30.75 2.11 C31.58 2.45, 32.36 2.82, 33.06 3.22 C33.75 3.62, 34.39 4.06, 34.93 4.51 C35.47 4.96, 35.94 5.45, 36.31 5.94 C36.68 6.43, 36.96 6.94, 37.15 7.46 C37.34 7.97, 37.39 8.76, 37.44 9.02 C37.48 9.29, 37.48 8.76, 37.44 9.02" stroke="none" stroke-width="0" fill="#fff"></path><path d="M37.44 9.02 C37.44 9.55, 37.34 10.08, 37.15 10.59 C36.96 11.11, 36.68 11.62, 36.31 12.11 C35.94 12.6, 35.47 13.08, 34.93 13.54 C34.39 13.99, 33.75 14.43, 33.06 14.83 C32.36 15.23, 31.58 15.6, 30.75 15.94 C29.92 16.27, 29.02 16.58, 28.08 16.84 C27.14 17.1, 26.14 17.33, 25.12 17.51 C24.1 17.68, 23.04 17.82, 21.97 17.91 C20.9 18, 19.8 18.05, 18.72 18.05 C17.63 18.05, 16.53 18, 15.47 17.91 C14.4 17.82, 13.33 17.68, 12.32 17.51 C11.3 17.33, 10.3 17.1, 9.36 16.84 C8.42 16.58, 7.52 16.27, 6.69 15.94 C5.86 15.6, 5.08 15.23, 4.38 14.83 C3.68 14.43, 3.05 13.99, 2.51 13.54 C1.97 13.08, 1.5 12.6, 1.13 12.11 C0.76 11.62, 0.47 11.11, 0.28 10.59 C0.1 10.08, 0 9.55, 0 9.02 C0 8.5, 0.1 7.97, 0.28 7.46 C0.47 6.94, 0.76 6.43, 1.13 5.94 C1.5 5.45, 1.97 4.96, 2.51 4.51 C3.05 4.06, 3.68 3.62, 4.38 3.22 C5.08 2.82, 5.86 2.45, 6.69 2.11 C7.52 1.78, 8.42 1.47, 9.36 1.21 C10.3 0.95, 11.3 0.72, 12.32 0.54 C13.33 0.37, 14.4 0.23, 15.47 0.14 C16.53 0.05, 17.63 0, 18.72 0 C19.8 0, 20.9 0.05, 21.97 0.14 C23.04 0.23, 24.1 0.37, 25.12 0.54 C26.14 0.72, 27.14 0.95, 28.08 1.21 C29.02 1.47, 29.92 1.78, 30.75 2.11 C31.58 2.45, 32.36 2.82, 33.06 3.22 C33.75 3.62, 34.39 4.06, 34.93 4.51 C35.47 4.96, 35.94 5.45, 36.31 5.94 C36.68 6.43, 36.96 6.94, 37.15 7.46 C37.34 7.97, 37.39 8.76, 37.44 9.02 C37.48 9.29, 37.48 8.76, 37.44 9.02" stroke="#fff" stroke-width="1" fill="none"></path></g></svg>